<svg width="572" height="690" viewBox="0 0 572 690" fill="none" xmlns="http://www.w3.org/2000/svg">
<g id="undraw_certificate_re_yadi 1" clipPath="url(#clip0_11_3)">
<path id="Vector" d="M4.08887 329.558C6.19038 333.067 9.03584 336.073 12.4248 338.364C15.8138 340.655 19.6639 342.175 23.704 342.817C27.744 343.459 31.8756 343.208 35.8078 342.08C39.7401 340.953 43.3773 338.977 46.4633 336.292L132.72 385.763L129.505 334.191L48.0873 295.118C43.2327 290.233 36.7546 287.298 29.8807 286.87C23.0069 286.442 16.2147 288.55 10.7913 292.795C5.36794 297.04 1.69014 303.127 0.454837 309.903C-0.780467 316.678 0.512551 323.672 4.08887 329.558Z" fill="#FFB8B8"/>
<path id="Vector_2" d="M253.81 527.739C228.224 563.551 229.139 623.465 236.278 689.038H357.252L362.512 676.765L369.525 689.038H483.486C483.486 689.038 474.72 522.479 458.941 517.219C443.161 511.96 253.81 527.739 253.81 527.739Z" fill="#2F2E41"/>
<path id="Vector_3" d="M357.252 153.582C391.143 153.582 418.616 126.109 418.616 92.2184C418.616 58.3281 391.143 30.8546 357.252 30.8546C323.362 30.8546 295.888 58.3281 295.888 92.2184C295.888 126.109 323.362 153.582 357.252 153.582Z" fill="#FFB8B8"/>
<path id="Vector_4" d="M401.604 169.503L413.604 192.503L496.604 229.503L474.786 440.639L465.604 462.503L470.565 481.49L458.604 495.503C470.61 506.367 472.135 517.739 465.604 529.503L427.382 538.258C427.382 538.258 214.861 557.156 232.771 524.232C252.341 488.259 257.325 382.017 214.122 325.244C177.445 277.046 205.604 214.503 205.604 214.503L292.604 188.503L324.604 169.503L401.604 169.503Z" fill="#3F3D56"/>
<path id="Vector_5" d="M384.495 2.33013C384.783 1.72001 385.248 1.21001 385.828 0.865617C386.408 0.521229 387.078 0.358174 387.752 0.397401C359.658 -1.28307 330.067 1.9913 306.564 17.4727C300.87 21.2234 295.502 25.697 289.306 28.4178C289.013 28.5492 288.76 28.754 288.57 29.0123C288.38 29.2706 288.26 29.5737 288.222 29.892C288.184 30.2103 288.229 30.5331 288.352 30.829C288.475 31.1249 288.673 31.3839 288.926 31.5808L289.607 32.1145C289.875 32.325 290.081 32.6052 290.201 32.9245C290.322 33.2437 290.352 33.5899 290.289 33.9253C290.227 34.2608 290.073 34.5726 289.846 34.8269C289.618 35.0812 289.326 35.2683 288.999 35.3678C288.659 35.4715 288.355 35.6703 288.124 35.9408C287.893 36.2112 287.744 36.5421 287.695 36.8943C287.646 37.2466 287.698 37.6056 287.846 37.9291C287.994 38.2525 288.232 38.5269 288.53 38.72L293.746 42.0907C294.008 42.2575 294.225 42.4876 294.376 42.7598C294.526 43.0321 294.606 43.3378 294.608 43.6489C294.609 43.9601 294.533 44.2666 294.385 44.5405C294.238 44.8144 294.024 45.0468 293.763 45.2165C293.321 45.4893 292.857 45.7245 292.376 45.9197C292.077 46.0321 291.811 46.2198 291.605 46.4646C291.4 46.7094 291.26 47.0032 291.201 47.3174C291.142 47.6317 291.164 47.956 291.267 48.2589C291.369 48.5619 291.548 48.8334 291.786 49.0472C294.044 51.0577 295.777 53.5902 296.832 56.4238C298.57 60.9435 298.882 65.866 299.176 70.6995C300.973 63.7252 308.584 59.6198 315.774 59.2027C322.964 58.7855 329.976 61.1578 336.973 62.8631C352.213 66.5666 368.041 67.1755 383.521 64.6538C378.265 75.2025 382.698 87.7849 387.16 98.6936L401.604 92.503C421.439 81.3061 407.622 128.671 400.207 135.173C415.348 140.422 454.979 82.1593 442.23 60.0587C435.598 48.5623 440.306 33.7347 427.267 22.8312C420.877 16.1041 408.118 19.094 401.604 13.503C399.039 11.3024 402.948 5.41517 399.424 4.13214C398.254 3.70599 384.689 1.90063 384.495 2.33013Z" fill="#2F2E41"/>
<path id="Vector_6" d="M280.554 194.443C269.294 244.433 240.414 361.153 211.114 385.563C209.256 387.318 207.028 388.633 204.594 389.413C101.604 414.503 68.6038 350.503 68.6038 350.503C68.6038 350.503 96.2038 337.053 96.9038 310.763L152.564 328.033L201.084 218.843L208.224 212.183L208.264 212.143L280.554 194.443Z" fill="#3F3D56"/>
<path id="Vector_7" d="M500.145 656.076C503.094 653.241 505.386 649.794 506.858 645.978C508.331 642.161 508.949 638.068 508.669 633.987C508.389 629.906 507.217 625.936 505.237 622.357C503.257 618.777 500.515 615.676 497.207 613.27L526.079 518.117L476.54 532.814L456.718 620.919C453.045 626.746 451.638 633.717 452.762 640.512C453.885 647.307 457.463 653.453 462.816 657.787C468.169 662.12 474.926 664.34 481.806 664.024C488.686 663.709 495.211 660.881 500.145 656.076V656.076Z" fill="#FFB8B8"/>
<path id="Vector_8" d="M473.72 224.18L496.604 229.503C496.604 229.503 591.188 413.531 568.396 448.596C545.603 483.661 517.681 599.752 517.681 599.752C517.681 599.752 476.383 591.542 460.604 570.503L489.499 432.817L459.694 317.102L473.72 224.18Z" fill="#3F3D56"/>
<path id="Vector_9" d="M39.5796 497.456L40.4013 201.067C40.4247 195.068 42.8268 189.323 47.0804 185.093C51.334 180.863 57.0919 178.493 63.0908 178.503L286.93 179.124C292.929 179.147 298.674 181.549 302.904 185.803C307.134 190.056 309.504 195.814 309.494 201.813L308.672 498.202C308.649 504.201 306.247 509.945 301.993 514.175C297.74 518.405 291.982 520.776 285.983 520.766L62.1436 520.145C56.1447 520.122 50.4001 517.72 46.17 513.466C41.9399 509.212 39.5698 503.455 39.5796 497.456V497.456Z" fill="#E6E6E6"/>
<path id="Vector_10" d="M56.9977 407.981L57.5259 217.436C57.5478 211.818 59.7973 206.438 63.7809 202.476C67.7646 198.514 73.1571 196.295 78.7753 196.304L271.146 196.837C276.765 196.859 282.145 199.109 286.107 203.092C290.068 207.076 292.288 212.468 292.279 218.087L291.548 481.832C291.526 487.451 289.276 492.831 285.292 496.792C281.308 500.754 275.916 502.974 270.298 502.964L151.128 502.634C126.102 502.536 102.138 492.516 84.4909 474.771C66.8441 457.027 56.9567 433.007 56.9977 407.981V407.981Z" fill="white"/>
<path id="Vector_11" d="M249.104 280.003H99.1038C96.7168 280.003 94.4276 279.055 92.7398 277.367C91.052 275.679 90.1038 273.39 90.1038 271.003C90.1038 268.616 91.052 266.327 92.7398 264.639C94.4276 262.951 96.7168 262.003 99.1038 262.003H249.104C251.491 262.003 253.78 262.951 255.468 264.639C257.156 266.327 258.104 268.616 258.104 271.003C258.104 273.39 257.156 275.679 255.468 277.367C253.78 279.055 251.491 280.003 249.104 280.003V280.003Z" fill="#6C63FF"/>
<path id="Vector_12" d="M132.104 238.503H99.1038C96.7168 238.503 94.4276 237.555 92.7398 235.867C91.052 234.179 90.1038 231.89 90.1038 229.503C90.1038 227.116 91.052 224.827 92.7398 223.139C94.4276 221.451 96.7168 220.503 99.1038 220.503H132.104C134.491 220.503 136.78 221.451 138.468 223.139C140.156 224.827 141.104 227.116 141.104 229.503C141.104 231.89 140.156 234.179 138.468 235.867C136.78 237.555 134.491 238.503 132.104 238.503Z" fill="#6C63FF"/>
<path id="Vector_13" d="M249.104 321.503H99.1038C96.7168 321.503 94.4276 320.555 92.7398 318.867C91.052 317.179 90.1038 314.89 90.1038 312.503C90.1038 310.116 91.052 307.827 92.7398 306.139C94.4276 304.451 96.7168 303.503 99.1038 303.503H249.104C251.491 303.503 253.78 304.451 255.468 306.139C257.156 307.827 258.104 310.116 258.104 312.503C258.104 314.89 257.156 317.179 255.468 318.867C253.78 320.555 251.491 321.503 249.104 321.503Z" fill="#6C63FF"/>
<path id="Vector_14" d="M249.104 363.003H99.1038C96.7168 363.003 94.4276 362.055 92.7398 360.367C91.052 358.679 90.1038 356.39 90.1038 354.003C90.1038 351.616 91.052 349.327 92.7398 347.639C94.4276 345.951 96.7168 345.003 99.1038 345.003H249.104C251.491 345.003 253.78 345.951 255.468 347.639C257.156 349.327 258.104 351.616 258.104 354.003C258.104 356.39 257.156 358.679 255.468 360.367C253.78 362.055 251.491 363.003 249.104 363.003V363.003Z" fill="#6C63FF"/>
<path id="Vector_15" d="M236.967 472.354C256.744 472.354 272.778 456.321 272.778 436.543C272.778 416.765 256.744 400.732 236.967 400.732C217.189 400.732 201.156 416.765 201.156 436.543C201.156 456.321 217.189 472.354 236.967 472.354Z" fill="#6C63FF"/>
<path id="Vector_16" d="M232.081 455.181C231.463 455.181 230.853 455.037 230.3 454.76C229.747 454.483 229.266 454.082 228.895 453.587L219.125 440.56C218.81 440.142 218.581 439.666 218.451 439.158C218.321 438.651 218.291 438.124 218.365 437.605C218.439 437.087 218.614 436.588 218.881 436.138C219.147 435.687 219.5 435.294 219.919 434.98C220.338 434.666 220.814 434.437 221.322 434.307C221.829 434.178 222.357 434.149 222.875 434.223C223.393 434.298 223.891 434.474 224.342 434.741C224.792 435.008 225.185 435.361 225.499 435.78L231.89 444.302L248.307 419.678C248.596 419.241 248.969 418.865 249.404 418.573C249.839 418.28 250.327 418.076 250.841 417.972C251.355 417.869 251.884 417.867 252.398 417.969C252.912 418.07 253.402 418.272 253.838 418.563C254.274 418.853 254.648 419.227 254.94 419.663C255.231 420.099 255.433 420.588 255.535 421.102C255.637 421.616 255.637 422.145 255.534 422.659C255.431 423.173 255.228 423.662 254.936 424.097L235.396 453.407C235.043 453.937 234.567 454.374 234.01 454.683C233.452 454.991 232.829 455.161 232.192 455.179C232.155 455.18 232.118 455.181 232.081 455.181Z" fill="white"/>
<path id="Vector_17" d="M160.604 109.503C169.993 109.503 177.604 101.892 177.604 92.503C177.604 83.1141 169.993 75.503 160.604 75.503C151.215 75.503 143.604 83.1141 143.604 92.503C143.604 101.892 151.215 109.503 160.604 109.503Z" fill="#F2F2F2"/>
<path id="Vector_18" d="M98.6038 598.503C107.993 598.503 115.604 590.892 115.604 581.503C115.604 572.114 107.993 564.503 98.6038 564.503C89.2149 564.503 81.6038 572.114 81.6038 581.503C81.6038 590.892 89.2149 598.503 98.6038 598.503Z" fill="#F2F2F2"/>
<path id="Vector_19" d="M489.604 175.503C498.992 175.503 506.604 167.892 506.604 158.503C506.604 149.114 498.992 141.503 489.604 141.503C480.215 141.503 472.604 149.114 472.604 158.503C472.604 167.892 480.215 175.503 489.604 175.503Z" fill="#F2F2F2"/>
</g>
<defs>
<clipPath id="clip0_11_3">
<rect width="571.94" height="689.038" fill="white"/>
</clipPath>
</defs>
</svg>
